<?xml version="1.0" encoding="UTF-8" standalone="no"?>
<svg
   version="1.1"
   viewBox="0 0 877 1072"
   width="219.25"
   height="268"
   id="svg4"
   xmlns="http://www.w3.org/2000/svg"
   xmlns:svg="http://www.w3.org/2000/svg">
  <defs
     id="defs4" />
  <g
     id="g4"
     transform="translate(-267,-198)">
    <path
       d="m 0,0 h 14 l 12,4 8,6 7,8 6,12 2,13 v 211 l 2,6 27,18 21,13 21,14 17,11 26,17 17,11 29,19 22,14 9,9 7,14 2,8 v 8 l -4,12 -6,10 -9,8 -10,6 -99,55 -29,16 -23,13 -18,10 -2,2 -1,102 v 169 l -4,11 -7,10 -13,9 -25,14 -22,12 -25,14 -23,13 -24,13 -21,12 -22,12 -43,24 -24,14 -12,6 -24,14 -19,10 -43,24 -23,13 -22,12 -16,9 -11,5 -8,2 h -10 l -12,-3 -11,-7 -7,-8 -4,-8 -3,-12 -1,-222 -5,-2 -10,-7 -20,-13 -16,-10 -10,-7 -22,-14 -26,-17 -14,-9 -17,-11 -15,-10 -19,-12 -9,-7 -8,-9 -5,-11 -1,-5 v -11 l 3,-12 4,-8 7,-8 17,-10 28,-14 18,-10 16,-8 15,-8 16,-8 29,-15 40,-21 5,-1 1,-281 4,-12 6,-8 8,-7 15,-9 18,-10 24,-13 23,-13 22,-12 23,-13 27,-15 22,-12 21,-12 25,-13 17,-10 26,-14 24,-14 19,-10 23,-13 27,-15 20,-11 19,-11 9,-4 z"
       fill="#009fe1"
       id="path2"
       transform="translate(895,198)" />
    <path
       transform="translate(895,198)"
       d="m 0,0 h 14 l 12,4 8,6 7,8 6,12 2,13 v 211 l 2,6 27,18 21,13 21,14 17,11 26,17 17,11 29,19 22,14 9,9 7,14 2,8 v 8 l -4,12 -6,10 -9,8 -10,6 -99,55 -29,16 -23,13 -18,10 h -3 l -11,-6 -21,-14 -14,-9 -11,-7 -14,-9 -12,-8 -17,-11 -15,-10 -19,-12 -14,-9 -15,-10 -31,-20 -20,-13 -11,-7 -12,-8 -2,-3 -1,-15 -1,-52 V 221 l 2,-109 v -8 l 17,-10 26,-14 24,-14 19,-10 23,-13 27,-15 20,-11 19,-11 9,-4 z"
       fill="#1decb4"
       id="path3" />
    <path
       transform="translate(465,730)"
       d="m 0,0 6,5 20,12 17,11 26,16 14,9 22,14 14,9 19,12 40,25 19,12 16,10 24,16 2,3 1,10 v 272 l -15,9 -12,6 -24,14 -19,10 -43,24 -23,13 -22,12 -16,9 -11,5 -8,2 H 37 l -12,-3 -11,-7 -7,-8 -4,-8 -3,-12 -1,-222 -5,-2 -10,-7 -20,-13 -16,-10 -10,-7 -22,-14 -26,-17 -14,-9 -17,-11 -15,-10 -19,-12 -9,-7 -8,-9 -5,-11 -1,-5 v -11 l 3,-12 4,-8 7,-8 17,-10 28,-14 18,-10 16,-8 15,-8 16,-8 L -45,24 -5,3 0,2 Z"
       fill="#7647fb"
       id="path4" />
  </g>
</svg>
